<svg width="15" height="16" viewBox="0 0 15 16" fill="none" xmlns="http://www.w3.org/2000/svg">
<path d="M7.875 6.74902H14.625V7.87402H7.875V6.74902ZM7.875 9.56152H12.375V10.6865H7.875V9.56152ZM7.875 3.93652H14.625V5.06152H7.875V3.93652Z" fill="#111111"/>
<path d="M10.125 12.374V14.624H1.125V7.87405H5.625V6.74905H3.375V3.37405C3.37442 2.85668 3.55216 2.35492 3.87827 1.95328C4.20439 1.55164 4.65896 1.27465 5.16541 1.16898C5.67187 1.0633 6.19927 1.13539 6.6588 1.3731C7.11832 1.61081 7.48188 1.99962 7.68825 2.47405L8.71875 2.02405C8.40835 1.31365 7.86289 0.73174 7.17401 0.376114C6.48514 0.020488 5.69485 -0.0871823 4.93595 0.0711968C4.17705 0.229576 3.4958 0.644351 3.00667 1.24582C2.51754 1.84729 2.25035 2.59879 2.25 3.37405V6.74905H1.125C0.826723 6.74934 0.540748 6.86797 0.329834 7.07888C0.11892 7.28979 0.000297831 7.57577 0 7.87405V14.624C0.000297831 14.9223 0.11892 15.2083 0.329834 15.4192C0.540748 15.6301 0.826723 15.7487 1.125 15.749H10.125C10.4233 15.7487 10.7093 15.6301 10.9202 15.4192C11.1311 15.2083 11.2497 14.9223 11.25 14.624V12.374H10.125Z" fill="#111111"/>
</svg>
