<svg width="16" height="13" viewBox="0 0 16 13" fill="none" xmlns="http://www.w3.org/2000/svg">
<path d="M13.3393 12.8571H2.08929C1.55563 12.8572 1.04218 12.653 0.65428 12.2865C0.266379 11.92 0.0334277 11.4189 0.00321437 10.8861L1.09277e-08 10.7679V1.44643C-4.50141e-05 1.07992 0.139047 0.727058 0.389166 0.459159C0.639285 0.191259 0.981778 0.0282999 1.34743 0.00321437L1.44643 1.09277e-08H11.4107C11.7772 -4.50141e-05 12.1301 0.139047 12.398 0.389166C12.6659 0.639285 12.8288 0.981778 12.8539 1.34743L12.8571 1.44643V1.92857H13.9821C14.3487 1.92853 14.7015 2.06762 14.9694 2.31774C15.2373 2.56786 15.4003 2.91035 15.4254 3.276L15.4286 3.375V10.7679C15.4286 11.3015 15.2244 11.815 14.8579 12.2029C14.4914 12.5908 13.9904 12.8237 13.4576 12.8539L13.3393 12.8571ZM2.08929 11.8929H13.3393C13.6217 11.8928 13.8938 11.7866 14.1015 11.5952C14.3092 11.4038 14.4373 11.1413 14.4604 10.8598L14.4643 10.7679V3.375C14.4643 3.25849 14.4221 3.14592 14.3455 3.05812C14.2689 2.97031 14.1631 2.9132 14.0477 2.89736L13.9821 2.89286H12.8571V9.80357C12.8571 9.92008 12.8149 10.0326 12.7384 10.1205C12.6618 10.2083 12.556 10.2654 12.4406 10.2812L12.375 10.2857C12.2585 10.2857 12.1459 10.2435 12.0581 10.1669C11.9703 10.0904 11.9132 9.98457 11.8974 9.86914L11.8929 9.80357V1.44643C11.8929 1.32992 11.8507 1.21735 11.7741 1.12954C11.6975 1.04174 11.5917 0.984631 11.4763 0.968786L11.4107 0.964286H1.44643C1.32992 0.964291 1.21735 1.00648 1.12954 1.08306C1.04174 1.15964 0.984631 1.26543 0.968786 1.38086L0.964286 1.44643V10.7679C0.964296 11.0502 1.07047 11.3222 1.26172 11.5299C1.45298 11.7376 1.71534 11.8658 1.99671 11.889L2.08929 11.8929ZM5.301 5.78829C5.74457 5.78829 6.10457 6.14829 6.10457 6.59186V8.83929C6.10457 9.28286 5.74457 9.64286 5.301 9.64286H3.05357C2.61 9.64286 2.25 9.28286 2.25 8.83929V6.59186C2.25 6.14829 2.61 5.78829 3.05357 5.78829H5.301ZM7.875 8.67857H10.1224C10.2446 8.67861 10.3622 8.72501 10.4514 8.80841C10.5407 8.89181 10.595 9.00598 10.6033 9.12785C10.6116 9.24972 10.5734 9.37022 10.4963 9.46498C10.4192 9.55974 10.309 9.62171 10.188 9.63836L10.1224 9.64286H7.875C7.75284 9.64282 7.63525 9.59641 7.54599 9.51302C7.45673 9.42962 7.40245 9.31545 7.39413 9.19358C7.3858 9.0717 7.42405 8.95121 7.50113 8.85645C7.57822 8.76169 7.68841 8.69972 7.80943 8.68307L7.875 8.67857ZM5.14093 6.75257H3.21429V8.67857H5.14093V6.75257ZM7.875 5.78829H10.1224C10.2446 5.78832 10.3622 5.83473 10.4514 5.91813C10.5407 6.00152 10.595 6.11569 10.6033 6.23757C10.6116 6.35944 10.5734 6.47993 10.4963 6.57469C10.4192 6.66945 10.309 6.73142 10.188 6.74807L10.1224 6.75257H7.875C7.75197 6.75382 7.63312 6.70799 7.54278 6.62447C7.45244 6.54094 7.39745 6.42604 7.38907 6.30329C7.38069 6.18055 7.41956 6.05924 7.4977 5.96421C7.57585 5.86918 7.68737 5.80762 7.80943 5.79214L7.875 5.78829ZM2.72957 2.89093H10.1224C10.2446 2.89097 10.3622 2.93737 10.4514 3.02077C10.5407 3.10416 10.595 3.21833 10.6033 3.34021C10.6116 3.46208 10.5734 3.58257 10.4963 3.67733C10.4192 3.7721 10.309 3.83406 10.188 3.85071L10.1224 3.85521H2.72957C2.60747 3.85501 2.48999 3.8085 2.40085 3.72505C2.31171 3.6416 2.25756 3.52744 2.24931 3.40561C2.24107 3.28379 2.27936 3.16337 2.35645 3.06868C2.43353 2.97399 2.54368 2.91207 2.66464 2.89543L2.72957 2.89093Z" fill="#111111"/>
</svg>
