<svg width="15" height="15" viewBox="0 0 15 15" fill="none" xmlns="http://www.w3.org/2000/svg">
<path d="M6.3 1.79996C5.6133 1.79996 4.9725 1.99166 4.4262 2.32556C4.36974 2.02353 4.26681 1.73208 4.1211 1.46156C4.80627 1.08239 5.57852 0.888585 6.36153 0.899292C7.14454 0.909999 7.9112 1.12485 8.58574 1.52261C9.26029 1.92038 9.81935 2.48728 10.2077 3.16729C10.596 3.8473 10.8002 4.61688 10.8 5.39996H13.0509C13.4088 5.4002 13.7519 5.54254 14.0049 5.79569C14.2579 6.04884 14.4 6.39208 14.4 6.74996V12.15C14.4 12.508 14.2578 12.8514 14.0046 13.1046C13.7514 13.3577 13.408 13.5 13.05 13.5H7.65C7.29196 13.5 6.94858 13.3577 6.69541 13.1046C6.44223 12.8514 6.3 12.508 6.3 12.15V9.89996C5.67394 9.90076 5.05466 9.77046 4.482 9.51746C4.4937 9.21146 4.5 8.89016 4.5 8.54996V8.51846C5.0292 8.82446 5.6439 8.99996 6.3 8.99996V6.74996C6.3 6.39192 6.44223 6.04854 6.69541 5.79537C6.94858 5.5422 7.29196 5.39996 7.65 5.39996H9.9C9.9 4.44518 9.52072 3.52951 8.84558 2.85438C8.17045 2.17925 7.25478 1.79996 6.3 1.79996ZM10.71 6.29996C10.533 7.16447 10.106 7.95796 9.48199 8.58195C8.858 9.20593 8.06451 9.63294 7.2 9.80996V12.15C7.2 12.2693 7.24741 12.3838 7.3318 12.4682C7.41619 12.5526 7.53065 12.6 7.65 12.6H13.05C13.1693 12.6 13.2838 12.5526 13.3682 12.4682C13.4526 12.3838 13.5 12.2693 13.5 12.15V6.74996C13.5 6.63062 13.4526 6.51616 13.3682 6.43177C13.2838 6.34737 13.1693 6.29996 13.05 6.29996H10.71ZM9.7866 6.29996H7.65C7.53065 6.29996 7.41619 6.34737 7.3318 6.43177C7.24741 6.51616 7.2 6.63062 7.2 6.74996V8.88656C7.82263 8.72525 8.39079 8.40036 8.8456 7.94556C9.3004 7.49076 9.62529 6.9226 9.7866 6.29996ZM2.3229 0.112464C2.3976 0.177806 2.44861 0.266011 2.46798 0.36335C2.48735 0.460689 2.474 0.561701 2.43 0.650664C2.42238 0.676995 2.41844 0.704253 2.4183 0.731664C2.4183 0.788364 2.4327 0.896364 2.5686 1.03136C2.6343 1.09706 2.6847 1.14386 2.7396 1.19516C2.7846 1.23656 2.8323 1.27976 2.8926 1.33916C3.0096 1.45076 3.1329 1.58216 3.2436 1.74686C3.4731 2.09156 3.6 2.52266 3.6 3.14996C3.6 3.91766 3.3156 4.57196 2.8719 4.97336L2.9295 5.03996C3.1815 5.34956 3.3282 5.75096 3.42 6.14696C3.6 6.92996 3.6 7.87136 3.6 8.52746V8.54996C3.6 11.0583 3.2589 12.4812 2.8836 13.2948C2.6946 13.7043 2.4939 13.9653 2.3202 14.1291C2.24958 14.1968 2.17171 14.2566 2.088 14.3073C2.04967 14.3303 2.00966 14.3505 1.9683 14.3676C1.9683 14.3676 1.8666 14.4 1.8 14.4C1.7334 14.4 1.6317 14.3676 1.6317 14.3676C1.58989 14.3515 1.54979 14.3313 1.512 14.3073C1.42829 14.2566 1.35042 14.1968 1.2798 14.1291C1.1061 13.9644 0.9054 13.7043 0.7164 13.2948C0.3411 12.4812 0 11.0583 0 8.54996V8.52746C0 7.87046 4.02331e-08 6.92996 0.18 6.14696C0.2718 5.75096 0.4185 5.34956 0.6705 5.03996C0.6885 5.01746 0.7083 4.99496 0.7281 4.97336C0.2844 4.57196 0 3.91766 0 3.14996C0 2.85656 0.0783 2.50646 0.1863 2.18336C0.2943 1.85936 0.4455 1.52456 0.6201 1.25456C0.828 0.903564 1.1205 0.609264 1.3473 0.411264C1.47164 0.301911 1.60141 0.19888 1.7361 0.102564L1.7631 0.084564L1.7712 0.0782638L1.7739 0.0764639L1.7757 0.075564C1.85823 0.020553 1.95662 -0.00565297 2.05557 0.00102005C2.15453 0.00769307 2.24851 0.0468711 2.3229 0.112464ZM1.8 4.49996C2.1483 4.49906 2.7 4.11296 2.7 3.14996C2.7 2.65226 2.6019 2.40836 2.4939 2.24636C2.42823 2.15174 2.35249 2.06453 2.268 1.98626L2.1564 1.88186C2.0835 1.81346 1.998 1.73426 1.9314 1.66856C1.83297 1.57115 1.74847 1.46061 1.6803 1.34006C1.56574 1.46052 1.46492 1.59334 1.3797 1.73606C1.2537 1.92956 1.1313 2.19506 1.0404 2.46866C0.9468 2.74766 0.9 2.99426 0.9 3.14996C0.9 4.11476 1.4535 4.49996 1.8 4.49996ZM1.368 5.60876C1.2402 5.76446 1.134 6.01286 1.0566 6.34946C0.9018 7.02266 0.9 7.86866 0.9 8.54996C0.9 10.9917 1.2339 12.2688 1.5336 12.9177C1.6326 13.131 1.7253 13.2732 1.8 13.3677C1.90634 13.2288 1.99576 13.0777 2.0664 12.9177C2.3661 12.2688 2.7 10.9917 2.7 8.54996C2.7 7.86866 2.6982 7.02266 2.5425 6.34946C2.4651 6.01286 2.3589 5.76446 2.232 5.60876C2.18236 5.5415 2.11708 5.48734 2.04181 5.45096C1.96654 5.41458 1.88355 5.39708 1.8 5.39996H1.7982C1.71494 5.39729 1.63228 5.4149 1.55733 5.45128C1.48239 5.48765 1.41741 5.5417 1.368 5.60876Z" fill="#111111"/>
</svg>
