<svg width="16" height="16" viewBox="0 0 16 16" fill="none" xmlns="http://www.w3.org/2000/svg">
<path d="M14.625 10.125C15.2454 10.125 15.75 9.62044 15.75 9V6.75C15.75 6.12956 15.2454 5.625 14.625 5.625H14.0625V2.8125C14.0625 2.19206 13.5579 1.6875 12.9375 1.6875H10.125V1.125C10.125 0.504562 9.62044 0 9 0H6.75C6.12956 0 5.625 0.504562 5.625 1.125V1.6875H2.8125C2.19206 1.6875 1.6875 2.19206 1.6875 2.8125V5.70488C0.72 5.95631 0 6.82987 0 7.875C0 8.92013 0.72 9.79312 1.6875 10.0451V12.9375C1.6875 13.5579 2.19206 14.0625 2.8125 14.0625H6.75V14.625C6.75 15.2454 7.25456 15.75 7.875 15.75H14.625C15.2454 15.75 15.75 15.2454 15.75 14.625V12.375C15.75 11.7546 15.2454 11.25 14.625 11.25H14.0625V10.125H14.625ZM14.625 9H12.375V6.75H14.625V9ZM6.75 1.125H9V3.375H6.75V1.125ZM5.625 2.8125V3.375C5.625 3.99544 6.12956 4.5 6.75 4.5H9C9.62044 4.5 10.125 3.99544 10.125 3.375V2.8125H12.9375V5.625H12.375C11.7546 5.625 11.25 6.12956 11.25 6.75V7.3125H4.42012C4.31937 6.92577 4.11727 6.57291 3.83468 6.29032C3.55209 6.00773 3.19923 5.80563 2.8125 5.70488V2.8125H5.625ZM1.125 7.875C1.125 7.25456 1.62956 6.75 2.25 6.75C2.87044 6.75 3.375 7.25456 3.375 7.875C3.375 8.49544 2.87044 9 2.25 9C1.62956 9 1.125 8.49544 1.125 7.875ZM14.625 14.625H7.875V12.375H14.625V14.625ZM12.9375 11.25H7.875C7.25456 11.25 6.75 11.7546 6.75 12.375V12.9375H2.8125V10.0451C3.19923 9.94437 3.55209 9.74227 3.83468 9.45968C4.11727 9.17709 4.31937 8.82423 4.42012 8.4375H11.25V9C11.25 9.62044 11.7546 10.125 12.375 10.125H12.9375V11.25Z" fill="#111111"/>
</svg>
