<svg width="10" height="16" viewBox="0 0 10 16" fill="none" xmlns="http://www.w3.org/2000/svg">
<path fill-rule="evenodd" clip-rule="evenodd" d="M2.607 0H7.107C7.20646 0 7.30184 0.0395089 7.37217 0.109835C7.44249 0.180161 7.482 0.275544 7.482 0.375V0.5625H7.875V0H9.375V2.625H7.875V2.0625H7.482V2.25C7.482 2.34946 7.44249 2.44484 7.37217 2.51516C7.30184 2.58549 7.20646 2.625 7.107 2.625H6.10725V6.09488L6.5535 6.54113V13.9822C6.5535 14.2806 6.43497 14.5668 6.224 14.7777C6.01302 14.9887 5.72687 15.1072 5.4285 15.1072H4.6965C4.39813 15.1072 4.11198 14.9887 3.901 14.7777C3.69003 14.5668 3.5715 14.2806 3.5715 13.9822V6.54113L4.01775 6.09488V2.625H3.357C3.15809 2.625 2.96732 2.54598 2.82667 2.40533C2.68602 2.26468 2.607 2.07391 2.607 1.875V0.75C2.11284 0.754744 1.64054 0.954381 1.2928 1.3055C0.945049 1.65662 0.749977 2.13082 0.75 2.625H7.26509e-10C-1.62941e-05 1.93191 0.274073 1.26695 0.76247 0.77518C1.25087 0.283411 1.91393 0.00475259 2.607 0ZM6.732 0.75H3.357V1.875H6.732V0.75ZM4.76775 2.625H5.35725V6.405L5.8035 6.85162V13.9822C5.8035 14.0817 5.76399 14.1771 5.69367 14.2474C5.62334 14.3177 5.52796 14.3572 5.4285 14.3572H4.6965C4.59704 14.3572 4.50166 14.3177 4.43133 14.2474C4.36101 14.1771 4.3215 14.0817 4.3215 13.9822V6.85125L4.76775 6.405V2.625Z" fill="#111111"/>
</svg>
